<!-- Generator: Adobe Illustrator 18.1.1, SVG Export Plug-In  -->
<svg version="1.1"
	 xmlns="http://www.w3.org/2000/svg" xmlns:xlink="http://www.w3.org/1999/xlink" xmlns:a="http://ns.adobe.com/AdobeSVGViewerExtensions/3.0/"
	 x="0px" y="0px" width="274.556px" height="290.588px" viewBox="0 0 274.556 290.588" enable-background="new 0 0 274.556 290.588"
	 xml:space="preserve">
<defs>
</defs>
<path fill="none" stroke="#000000" stroke-width="3" stroke-linecap="round" stroke-miterlimit="10" stroke-dasharray="1,20" d="
	M273.056,1.5c-23.373,28.294-20.117,32.839-47.117,55.932c-55.708,47.648-111.424,56.613-151.586,64.051
	c-21.843,4.045-41.74,5.446-56.285-6.733C4.716,103.57-3.433,81.129,4.822,61.833c9.399-21.971,34.3-26.39,38.692-27.068
	c9.729-1.503,27.374-1.418,52.623,17.082c15.451,11.321,69.287,50.587,74.376,120.471c0.998,13.701,0.845,38.237-10.686,67.455"/>
<g>
	<g>
		<path fill="#F4B609" d="M156.411,268.075c1.311-1.458,2.484-3.228,3.409-5.24c3.312-7.201,2.205-14.782-2.472-16.933
			s-11.154,1.942-14.466,9.143c-0.926,2.013-1.506,4.055-1.76,6.001l2.515,2.164l1.079,2.4l1.801,4.87l7.395-2.543L156.411,268.075z
			"/>
		<g>
			<path fill="#FFFFFF" stroke="#010202" stroke-width="1.8823" stroke-miterlimit="10" d="M132.471,268.938L132.471,268.938
				c1.211,3.273,4.846,4.945,8.119,3.734h0l5.927-2.192l-2.192-5.927h0c-1.211-3.273-4.846-4.945-8.119-3.734h0
				C132.932,262.03,131.261,265.665,132.471,268.938z"/>
			<path fill="#FFFFFF" stroke="#010202" stroke-width="1.8823" stroke-miterlimit="10" d="M148.709,276.407
				c1.211,3.273,4.846,4.945,8.119,3.734l0,0c3.273-1.211,4.945-4.846,3.734-8.119c-1.211-3.273-4.846-4.945-8.119-3.734
				l-5.927,2.192L148.709,276.407L148.709,276.407z"/>
			<path fill="#DDDDDD" d="M146.517,270.48l-5.927,2.192h0c-3.273,1.211-6.908-0.461-8.119-3.734v0
				c-0.605-1.637-0.49-3.364,0.186-4.833L146.517,270.48z"/>
			<path fill="#DDDDDD" d="M146.517,270.48l5.927-2.192h0c3.273-1.211,6.908,0.461,8.119,3.734l0,0
				c0.605,1.637,0.49,3.364-0.186,4.833L146.517,270.48z"/>
			<path fill="#010202" d="M136.206,260.819"/>
			<path fill="none" stroke="#010202" stroke-width="1.8823" stroke-miterlimit="10" d="M148.709,276.407
				c1.211,3.273,4.846,4.945,8.119,3.734l0,0c3.273-1.211,4.945-4.846,3.734-8.119c-1.211-3.273-4.846-4.945-8.119-3.734
				l-5.927,2.192L148.709,276.407L148.709,276.407z"/>
			<path fill="none" stroke="#010202" stroke-width="1.8823" stroke-miterlimit="10" d="M132.471,268.938L132.471,268.938
				c1.211,3.273,4.846,4.945,8.119,3.734h0l5.927-2.192l-2.192-5.927h0c-1.211-3.273-4.846-4.945-8.119-3.734h0
				C132.932,262.03,131.261,265.665,132.471,268.938z"/>
		</g>
		<path fill="none" stroke="#010202" stroke-width="1.8823" stroke-miterlimit="10" d="M141.122,261.046
			c0.254-1.945,0.834-3.988,1.76-6.001c3.312-7.201,9.788-11.294,14.466-9.143s5.784,9.733,2.472,16.933
			c-0.925,2.012-2.098,3.781-3.409,5.24"/>
		<path fill="none" stroke="#010202" stroke-width="2.0563" stroke-miterlimit="10" d="M150.34,246.535
			c1.863,0.34,3.857,0.966,5.851,1.883c1.994,0.917,3.766,2.023,5.237,3.217"/>
		<path fill="none" stroke="#010202" stroke-width="2.0563" stroke-miterlimit="10" d="M145.711,250.483
			c2.549,0.084,5.539,0.804,8.528,2.179c2.983,1.372,5.472,3.169,7.194,5.046"/>
		<path fill="none" stroke="#010202" stroke-width="2.0563" stroke-miterlimit="10" d="M143.035,254.72
			c2.698-0.043,5.975,0.678,9.252,2.185c3.278,1.508,5.959,3.528,7.682,5.605"/>
		<path fill="none" stroke="#010202" stroke-width="2.0563" stroke-miterlimit="10" d="M141.512,258.964
			c2.612,0.035,5.718,0.758,8.823,2.186c3.105,1.428,5.674,3.316,7.401,5.276"/>
		<path fill="none" stroke="#010202" stroke-width="2.0563" stroke-miterlimit="10" d="M143.926,263.813
			c1.448,0.363,2.953,0.889,4.457,1.581c1.705,0.784,3.248,1.707,4.579,2.704"/>
		<path fill="#010202" stroke="#010202" stroke-width="1.8824" stroke-miterlimit="10" d="M149.921,278.421
			c-2.142,2.357-5.384,3.257-8.128,1.995c-2.712-1.248-4.138-4.241-3.787-7.363l2.884-0.144l5.058-2.219l2.476,6.196
			L149.921,278.421z"/>
	</g>
	<g>
		<path fill="none" stroke="#010202" stroke-width="1.8823" stroke-linecap="round" stroke-miterlimit="10" d="M144.067,281.29
			c-0.057,0.165-1.124,3.455,1.131,6.133c2.166,2.573,5.408,2.22,5.636,2.191"/>
		<path fill="none" stroke="#010202" stroke-width="1.8823" stroke-linecap="round" stroke-miterlimit="10" d="M139.903,279.375
			c-0.088,0.15-1.892,3.101-5.393,3.133c-3.363,0.03-5.205-2.661-5.332-2.853"/>
	</g>
</g>
</svg>