<!-- Generator: Adobe Illustrator 18.1.1, SVG Export Plug-In  -->
<svg version="1.1"
	 xmlns="http://www.w3.org/2000/svg" xmlns:xlink="http://www.w3.org/1999/xlink" xmlns:a="http://ns.adobe.com/AdobeSVGViewerExtensions/3.0/"
	 x="0px" y="0px" width="150.193px" height="387.138px" viewBox="0 0 150.193 387.138" enable-background="new 0 0 150.193 387.138"
	 xml:space="preserve">
<defs>
</defs>
<g>
	<g>
		<path fill="#F4B609" d="M128.266,360.203c0.166-1.954,0.033-4.073-0.443-6.235c-1.704-7.74-7.162-13.118-12.189-12.011
			s-7.722,8.279-6.018,16.02c0.476,2.164,1.246,4.143,2.218,5.847l3.311,0.209l2.309,1.263l4.375,2.796l4.363-6.491L128.266,360.203
			z"/>
		<g>
			<path fill="#DDDDDD" d="M121.828,368.091l-3.403,5.325h0c-1.879,2.941-5.787,3.801-8.728,1.921h0
				c-1.47-0.94-2.421-2.387-2.768-3.966L121.828,368.091z"/>
			<path fill="#DDDDDD" d="M121.828,368.091l3.403-5.325h0c1.879-2.941,5.787-3.801,8.728-1.921h0
				c1.47,0.94,2.421,2.387,2.768,3.966L121.828,368.091z"/>
			<path fill="none" stroke="#010202" stroke-width="1.8823" stroke-miterlimit="10" d="M127.152,371.494
				c2.941,1.88,6.848,1.019,8.728-1.921l0,0c1.879-2.941,1.019-6.848-1.921-8.728c-2.941-1.88-6.848-1.019-8.728,1.921l-3.403,5.324
				L127.152,371.494L127.152,371.494z"/>
			<path fill="none" stroke="#010202" stroke-width="1.8823" stroke-miterlimit="10" d="M109.697,375.337L109.697,375.337
				c2.941,1.88,6.848,1.019,8.728-1.921h0l3.403-5.325l-5.325-3.403h0c-2.941-1.88-6.848-1.019-8.728,1.921h0
				C105.896,369.55,106.756,373.457,109.697,375.337z"/>
			<path fill="#010202" d="M107.775,366.609"/>
		</g>
		<path fill="none" stroke="#010202" stroke-width="1.8823" stroke-miterlimit="10" d="M111.833,363.823
			c-0.972-1.704-1.741-3.684-2.218-5.847c-1.704-7.74,0.99-14.913,6.018-16.02s10.485,4.271,12.189,12.011
			c0.476,2.163,0.609,4.281,0.443,6.235"/>
		<path fill="none" stroke="#010202" stroke-width="2.0563" stroke-miterlimit="10" d="M110.427,346.689
			c1.691-0.853,3.659-1.557,5.802-2.029c2.143-0.472,4.224-0.659,6.117-0.595"/>
		<path fill="none" stroke="#010202" stroke-width="2.0563" stroke-miterlimit="10" d="M109.118,352.631
			c2.083-1.472,4.902-2.701,8.115-3.409c3.207-0.706,6.275-0.775,8.782-0.317"/>
		<path fill="none" stroke="#010202" stroke-width="2.0563" stroke-miterlimit="10" d="M109.541,357.625
			c2.125-1.662,5.174-3.065,8.697-3.84c3.524-0.776,6.881-0.783,9.508-0.166"/>
		<path fill="none" stroke="#010202" stroke-width="2.0563" stroke-miterlimit="10" d="M110.887,361.928
			c2.105-1.548,5.017-2.846,8.355-3.581c3.337-0.735,6.525-0.78,9.085-0.259"/>
		<path fill="none" stroke="#010202" stroke-width="2.0563" stroke-miterlimit="10" d="M115.739,364.337
			c1.374-0.585,2.891-1.073,4.508-1.429c1.832-0.403,3.62-0.599,5.283-0.607"/>
		<path fill="#010202" stroke="#010202" stroke-width="1.8824" stroke-miterlimit="10" d="M129.333,372.369
			c-0.286,3.172-2.328,5.846-5.277,6.495c-2.916,0.642-5.859-0.885-7.463-3.586l2.213-1.855l2.695-4.822l5.714,3.447
			L129.333,372.369z"/>
	</g>
	<g>
		<path fill="none" stroke="#010202" stroke-width="1.8823" stroke-linecap="round" stroke-miterlimit="10" d="M126.397,378.19
			c0.054,0.166,1.189,3.433,4.603,4.208c3.279,0.745,5.652-1.493,5.817-1.653"/>
		<path fill="none" stroke="#010202" stroke-width="1.8823" stroke-linecap="round" stroke-miterlimit="10" d="M121.921,379.175
			c0.02,0.173,0.363,3.615-2.41,5.752c-2.663,2.053-5.757,1.019-5.973,0.942"/>
	</g>
</g>
<path fill="none" stroke="#000000" stroke-width="3" stroke-linecap="round" stroke-miterlimit="10" stroke-dasharray="1,20" d="
	M148.693,1.706c-7.373-0.484-45.213-2.228-71.921,25.324C56.17,48.284,40.81,88.399,58.539,109.08
	c9.982,11.644,28.626,14.996,43.558,11.143c11.31-2.919,28.557-12.052,31.402-28.363c3.843-22.03-21.8-38.733-26.337-41.532
	c-27.682-17.074-59.34-3.569-62.804-2.026c-8.753,3.9-14.503,8.667-16.208,10.13C2.875,80.116-3.244,121.718,4.852,152.638
	c7.726,29.507,25.77,39.257,48.622,65.843c20.976,24.403,46.815,63.936,61.791,127.634"/>
</svg>