<!-- Generator: Adobe Illustrator 18.1.1, SVG Export Plug-In  -->
<svg version="1.1"
	 xmlns="http://www.w3.org/2000/svg" xmlns:xlink="http://www.w3.org/1999/xlink" xmlns:a="http://ns.adobe.com/AdobeSVGViewerExtensions/3.0/"
	 x="0px" y="0px" width="48.079px" height="82.142px" viewBox="0 0 48.079 82.142" enable-background="new 0 0 48.079 82.142"
	 xml:space="preserve">
<defs>
</defs>
<g>
	<g>
		<path fill="#F4B609" d="M24.039,82.142c-1.953,0-3.535-1.582-3.535-3.535v-30.86c0-1.953,1.582-3.535,3.535-3.535
			s3.535,1.582,3.535,3.535v30.86C27.574,80.56,25.992,82.142,24.039,82.142z"/>
	</g>
	<g>
		<path fill="#F4B609" d="M24.039,50.196C10.784,50.196,0,39.413,0,26.157v-16.03c0-0.984,0.41-1.924,1.132-2.593
			c0.72-0.67,1.683-1.013,2.671-0.932c0.28,0.021,6.943,0.551,13.694,3.243c0.484,0.193,0.951,0.39,1.405,0.592
			c0.651-1.951,1.815-3.691,3.449-5.129c7.018-6.177,20.901-5.319,22.461-5.202c1.843,0.14,3.268,1.676,3.268,3.525v22.526
			C48.079,39.413,37.295,50.196,24.039,50.196z M7.07,14.193v11.964c0,9.356,7.613,16.969,16.969,16.969s16.969-7.613,16.969-16.969
			V7.081c-4.392,0.071-10.872,0.787-13.992,3.538c-1.052,0.929-1.575,1.993-1.646,3.35c-0.005,0.101-0.014,0.199-0.027,0.296
			c5.634,4.506,7.03,9.895,7.03,14.128c0,1.953-1.582,3.535-3.535,3.535s-3.535-1.582-3.535-3.535
			C25.304,18.838,13.375,15.362,7.07,14.193z"/>
	</g>
</g>
</svg>