<!-- Generator: Adobe Illustrator 18.1.1, SVG Export Plug-In  -->
<svg version="1.1"
	 xmlns="http://www.w3.org/2000/svg" xmlns:xlink="http://www.w3.org/1999/xlink" xmlns:a="http://ns.adobe.com/AdobeSVGViewerExtensions/3.0/"
	 x="0px" y="0px" width="52.124px" height="83.04px" viewBox="0 0 52.124 83.04" enable-background="new 0 0 52.124 83.04"
	 xml:space="preserve">
<defs>
</defs>
<g>
	<g>
		<path fill="#F4B609" d="M26.062,52.124C11.692,52.124,0,40.432,0,26.062S11.692,0,26.062,0s26.062,11.692,26.062,26.062
			S40.432,52.124,26.062,52.124z M26.062,7.07C15.59,7.07,7.07,15.59,7.07,26.062s8.52,18.992,18.992,18.992
			s18.992-8.52,18.992-18.992S36.534,7.07,26.062,7.07z"/>
	</g>
	<g>
		<path fill="#F4B609" d="M26.062,83.04c-1.953,0-3.535-1.582-3.535-3.535v-30.86c0-1.953,1.582-3.535,3.535-3.535
			s3.535,1.582,3.535,3.535v30.86C29.597,81.457,28.015,83.04,26.062,83.04z"/>
	</g>
	<g>
		<path fill="#010202" d="M15.345,29.597c-1.953,0-3.535-1.582-3.535-3.535c0-7.859,6.393-14.253,14.252-14.253
			c1.953,0,3.535,1.582,3.535,3.535s-1.582,3.535-3.535,3.535c-3.96,0-7.182,3.222-7.182,7.182
			C18.88,28.015,17.298,29.597,15.345,29.597z"/>
	</g>
</g>
</svg>